<?xml version="1.0" encoding="UTF-8" standalone="no"?>
<!-- Created with Inkscape (http://www.inkscape.org/) -->

<svg
   width="211.22966mm"
   height="282.85831mm"
   viewBox="0 0 211.22966 282.85831"
   version="1.1"
   id="svg406"
   xml:space="preserve"
   xmlns="http://www.w3.org/2000/svg"
   xmlns:svg="http://www.w3.org/2000/svg"><defs
     id="defs403" /><g
     id="layer1"
     transform="translate(402.18373,-31.935353)"><path
       style="fill:#ffffff;stroke-width:1"
       d="m -379.45035,313.98897 c -1.7752,-1.18931 -3.30519,-2.67034 -3.97367,-3.84646 -2.15445,-3.79058 -3.25773,-6.65843 -4.06279,-10.56074 -0.23761,-1.15173 -0.48329,-2.17702 -0.54594,-2.27841 -0.1953,-0.31599 -0.37969,-2.09216 -0.65849,-6.34314 -0.14793,-2.25558 -0.3164,-4.33917 -0.37438,-4.63021 -0.095,-0.4771 0.0346,-3.39797 0.47505,-10.70756 0.15238,-2.52859 0.34987,-4.16266 0.54032,-4.47082 0.057,-0.0922 0.17881,-1.04918 0.27071,-2.12659 0.0919,-1.07741 0.24987,-2.08939 0.35105,-2.24885 0.10118,-0.15947 0.20179,-0.6132 0.22356,-1.00833 0.0758,-1.37448 0.41799,-3.2521 0.64257,-3.52541 0.12431,-0.15129 0.40822,-1.22285 0.63091,-2.38126 0.64083,-3.33359 1.24935,-6.02967 1.49058,-6.6041 0.12222,-0.29104 0.41655,-1.30307 0.65408,-2.24896 0.23753,-0.94588 0.6007,-2.03581 0.80705,-2.42207 0.20635,-0.38625 0.37517,-0.94387 0.37517,-1.23914 0,-0.66602 1.56615,-5.63897 1.88419,-5.98285 0.12787,-0.13824 0.23248,-0.53302 0.23248,-0.87729 0,-0.34426 0.13204,-0.87265 0.29341,-1.17418 0.16138,-0.30154 0.34982,-0.91879 0.41876,-1.37167 0.0689,-0.45288 0.23455,-0.93653 0.36804,-1.07478 0.13349,-0.13824 0.24675,-0.4359 0.25168,-0.66145 0.005,-0.22556 0.23903,-0.88636 0.52019,-1.46844 0.28117,-0.58208 0.51526,-1.16957 0.52019,-1.30553 0.005,-0.13596 0.25144,-0.74805 0.54778,-1.36021 0.29634,-0.61216 0.589,-1.37363 0.65034,-1.69217 0.26411,-1.37142 1.21808,-4.06934 2.35576,-6.66229 0.23312,-0.53131 0.42385,-1.08743 0.42385,-1.23582 0,-0.14838 0.42538,-1.26148 0.9453,-2.47355 0.51991,-1.21207 1.28222,-3.09673 1.69401,-4.18814 0.4118,-1.09141 0.98818,-2.60945 1.28085,-3.37344 0.29267,-0.76398 0.48923,-1.38906 0.43679,-1.38906 -0.0524,0 0.25548,-0.66693 0.68427,-1.48208 0.42879,-0.81514 0.77961,-1.63879 0.77961,-1.83034 0,-0.19155 0.28687,-0.9236 0.63748,-1.62678 0.35061,-0.70318 0.67743,-1.57616 0.72627,-1.93997 0.0488,-0.3638 0.3573,-1.10557 0.68545,-1.64838 0.32815,-0.54282 0.59664,-1.1414 0.59664,-1.33019 0,-0.1888 0.20249,-0.63236 0.44997,-0.98569 0.24749,-0.35333 0.47014,-0.82631 0.4948,-1.05106 0.0555,-0.50632 1.60511,-4.7409 1.96107,-5.35911 0.14332,-0.24891 0.20239,-0.6061 0.13127,-0.79375 -0.0711,-0.18766 0.22905,-0.57932 0.66705,-0.87036 0.45927,-0.30517 0.73817,-0.68262 0.65888,-0.8917 -0.0756,-0.19939 0.14785,-0.97329 0.49663,-1.71979 0.34877,-0.74649 0.75608,-1.71444 0.90514,-2.15101 0.14905,-0.43656 0.36118,-1.03187 0.47139,-1.32291 0.11021,-0.29105 0.22063,-0.5887 0.24536,-0.66146 0.22069,-0.64913 1.91956,-3.99714 2.32667,-4.58521 0.28508,-0.41181 0.51833,-1.04056 0.51833,-1.39722 0,-0.35667 0.22701,-0.80749 0.50448,-1.00183 0.27746,-0.19434 0.55191,-0.59966 0.60988,-0.90071 0.058,-0.30104 0.22861,-0.77755 0.37919,-1.05891 0.15057,-0.28135 0.20139,-0.58393 0.11292,-0.6724 -0.0885,-0.0885 0.0348,-0.23592 0.27389,-0.32768 0.24116,-0.0925 0.43475,-0.45829 0.43475,-0.82136 0,-0.36 0.87927,-2.40109 1.95395,-4.53576 1.07467,-2.13467 2.27963,-4.59559 2.67768,-5.46871 0.39805,-0.87313 1.44154,-3.01625 2.31887,-4.7625 1.59513,-3.175 1.59513,-3.175 1.27137,-8.59896 -0.37172,-6.22775 -0.49668,-8.23233 -0.68031,-10.91406 -0.32452,-4.73908 -0.51558,-10.88218 -0.52255,-16.80105 -0.004,-3.52889 -0.0702,-6.41615 -0.14688,-6.41615 -0.0766,10e-6 -0.4528,0.48347 -0.83595,1.07438 -0.38314,0.5909 -1.33248,1.76011 -2.10964,2.59824 -0.77715,0.83814 -2.30597,2.52166 -3.39738,3.74118 -4.08757,4.56736 -11.80132,12.42996 -12.19465,12.42996 -0.13242,0 -0.24209,0.14883 -0.24372,0.33073 -0.002,0.1819 -0.86483,1.23477 -1.91823,2.33972 -2.32689,2.44075 -4.15455,4.5691 -5.88614,6.85455 -0.71665,0.94588 -1.39303,1.75839 -1.50307,1.80556 -0.11003,0.0472 -0.76142,0.94014 -1.44753,1.98438 -0.68611,1.04423 -1.49305,2.20946 -1.79321,2.5894 -0.30016,0.37994 -0.72433,0.95954 -0.94262,1.28801 -0.21828,0.32847 -0.75406,1.08038 -1.19062,1.67092 -1.67788,2.26965 -2.19878,3.05122 -2.35187,3.52878 -0.14499,0.45232 -0.5115,0.94355 -2.01427,2.6997 -0.29076,0.33978 -0.52865,0.77715 -0.52865,0.97192 0,0.19477 -0.38696,0.86927 -0.8599,1.49887 -1.07743,1.43434 -3.12898,4.55332 -3.79517,5.76981 -0.27737,0.5065 -1.01032,1.63165 -1.62879,2.50034 -0.61846,0.86869 -1.12448,1.70574 -1.12448,1.86012 0,0.15437 -0.41443,0.75563 -0.92096,1.33612 -0.50653,0.58049 -0.92325,1.15626 -0.92605,1.27948 -0.003,0.12321 -0.60038,1.069 -1.32799,2.10174 -0.7276,1.03274 -1.32291,2.03325 -1.32291,2.22336 0,0.19011 -0.097,0.34565 -0.21558,0.34565 -0.23434,0 -1.10734,1.69507 -1.10734,2.15006 0,0.15401 -0.23813,0.58275 -0.52917,0.95275 -2.14762,2.73026 1.64449,4.0551 4.70878,1.64509 0.33426,-0.26289 0.95934,-0.5552 1.38906,-0.64958 0.42973,-0.0944 0.78133,-0.28121 0.78133,-0.41517 0,-0.13396 0.16716,-0.24356 0.37146,-0.24356 0.37471,0 2.63431,-1.22099 4.4465,-2.40269 0.53983,-0.35201 1.55186,-0.99052 2.24896,-1.41891 0.6971,-0.42839 2.03904,-1.44042 2.9821,-2.24896 0.94305,-0.80854 1.87052,-1.58913 2.06103,-1.73465 0.19052,-0.14552 0.84768,-0.79326 1.46036,-1.43942 1.39108,-1.4671 3.62367,-3.6379 5.8667,-5.70433 2.37384,-2.18695 5.14052,-6.28453 5.31149,-7.86659 0.0272,-0.25204 0.17217,-0.60922 0.32206,-0.79375 0.14989,-0.18452 0.45189,-0.87127 0.67111,-1.52612 0.57761,-1.72545 1.34751,-1.67111 1.46017,0.10306 0.0452,0.71152 -0.0441,1.41995 -0.19843,1.57427 -0.15433,0.15432 -0.28239,0.5842 -0.28458,0.95528 -0.005,0.84805 -0.5167,2.33519 -1.12063,3.25691 -0.25459,0.38855 -0.46471,0.97853 -0.46693,1.31107 -0.005,0.70446 -0.33726,1.31362 -0.68166,1.24871 -0.5416,-0.10208 -0.90203,0.0364 -0.90587,0.3481 -0.006,0.47443 -2.22129,2.80579 -4.22926,4.45055 -0.94588,0.7748 -2.79404,2.48652 -4.10702,3.80383 -3.54623,3.55792 -5.31327,4.95415 -8.1961,6.47617 -1.73541,0.91622 -2.32395,1.24784 -4.84818,2.73171 -7.28145,4.28042 -11.95286,4.4717 -11.95286,0.48942 0,-1.18045 0.54628,-3.52443 0.96018,-4.11993 0.1995,-0.28704 0.36273,-0.73726 0.36273,-1.00049 0,-0.26323 0.1694,-0.5436 0.37644,-0.62305 0.20704,-0.0794 0.56756,-0.54721 0.80114,-1.03945 0.23359,-0.49225 0.8381,-1.43657 1.34336,-2.09849 0.50525,-0.66192 0.91865,-1.27104 0.91865,-1.3536 0,-0.0825 0.51332,-0.82566 1.14072,-1.65135 0.6274,-0.82569 1.42301,-1.97751 1.76803,-2.55959 0.34502,-0.58209 1.05209,-1.59463 1.57126,-2.2501 1.01692,-1.2839 1.51029,-2.01754 1.77851,-2.6447 0.0933,-0.21828 0.42679,-0.75406 0.74097,-1.19062 0.31418,-0.43656 0.96479,-1.44859 1.4458,-2.24896 0.48101,-0.80036 1.21786,-1.93146 1.63746,-2.51354 0.41959,-0.58208 2.15554,-3.14193 3.85765,-5.68854 6.38044,-9.54608 9.52585,-13.50767 16.35439,-20.59804 1.45521,-1.51101 2.89859,-3.01045 3.20751,-3.33209 0.30893,-0.32164 0.85557,-0.81597 1.21476,-1.09851 0.35918,-0.28254 0.79523,-0.77934 0.96898,-1.10399 0.17375,-0.32466 0.49031,-0.59029 0.70347,-0.59029 0.21317,0 0.38757,-0.10553 0.38757,-0.23451 0,-0.12898 0.56555,-0.83677 1.25677,-1.57287 12.1659,-12.95576 12.6987,-13.68776 12.92009,-17.7507 0.12581,-2.3087 0.32472,-4.20197 0.50217,-4.77961 0.0677,-0.22047 0.24065,-1.59147 0.38427,-3.04668 0.14362,-1.45521 0.5081,-4.015047 0.80996,-5.688537 0.30185,-1.67349 0.60898,-3.45943 0.68251,-3.96875 0.0735,-0.50933 0.19126,-1.2237 0.26164,-1.5875 0.0704,-0.3638 0.19038,-1.01865 0.26671,-1.45521 0.0763,-0.43656 0.25683,-1.24037 0.40114,-1.78624 0.14431,-0.54587 0.36672,-1.73649 0.49424,-2.64583 0.12751,-0.90934 0.42962,-2.42725 0.67134,-3.37314 0.24173,-0.94588 0.48287,-2.23231 0.53588,-2.85873 0.053,-0.62642 0.21804,-1.51939 0.36675,-1.98438 0.1487,-0.46499 0.35034,-1.50027 0.44807,-2.30064 0.0977,-0.80036 0.27758,-1.6497 0.39965,-1.88742 0.12208,-0.23771 0.35252,-1.30928 0.5121,-2.38125 0.15958,-1.07197 0.63117,-3.19919 1.04798,-4.72716 0.41681,-1.52797 0.84349,-3.42499 0.94817,-4.21561 0.10468,-0.79061 0.42348,-2.040768 0.70845,-2.778122 0.28497,-0.737354 0.67387,-1.876425 0.86424,-2.531269 1.17848,-4.053877 3.40037,-9.687099 5.20545,-13.197475 0.55225,-1.073975 1.00409,-2.115772 1.00409,-2.315104 0,-0.199332 0.0953,-0.362421 0.21186,-0.362421 0.11652,0 0.47969,-0.551283 0.80705,-1.225073 0.6926,-1.425594 2.62265,-3.80201 3.08787,-3.80201 0.17587,0 0.60372,-0.217929 0.95077,-0.484291 1.34636,-1.033332 6.05495,-1.464929 6.05495,-0.555003 0,0.135049 0.14883,0.248767 0.33073,0.252704 0.37867,0.0082 3.10203,2.367931 2.73712,2.371651 -0.1317,0.0013 -0.067,0.210798 0.1437,0.46546 1.01315,1.224357 1.15424,1.949151 1.14107,5.861547 -0.007,2.124038 -0.14973,4.457203 -0.31684,5.184807 -0.1671,0.727604 -0.36364,2.220357 -0.43674,3.317227 -0.0731,1.096869 -0.19334,2.168432 -0.26719,2.381249 -0.0738,0.212818 -0.1981,1.101315 -0.27612,1.97444 -0.15182,1.698914 -0.6197,4.699473 -1.2996,8.334373 -0.23136,1.23693 -0.55807,3.02287 -0.72601,3.96875 -0.16794,0.94589 -0.41075,1.85329 -0.53957,2.01647 -0.12883,0.16316 -0.47405,1.21226 -0.76716,2.33133 -0.29311,1.11906 -0.63714,2.23571 -0.76451,2.48145 -0.12737,0.24574 -0.67474,1.57789 -1.21636,2.96033 -1.29814,3.31336 -3.61036,8.20209 -3.87934,8.20209 -0.11725,0 -0.21318,0.17068 -0.21318,0.37929 0,0.20861 -0.33986,0.95276 -0.75524,1.65365 -0.41539,0.70089 -1.32327,2.28638 -2.01753,3.52331 -1.61619,2.87948 -3.58452,5.89288 -4.02676,6.16471 -0.18932,0.11637 -0.34422,0.34223 -0.34422,0.50191 0,0.15969 -0.41672,0.79889 -0.92604,1.42045 -0.50933,0.621557 -0.92604,1.205897 -0.92604,1.298537 0,0.16414 -1.11899,1.79379 -3.11517,4.53682 -0.54223,0.7451 -1.42562,1.83932 -1.9631,2.43159 -0.53747,0.59228 -1.16004,1.43041 -1.38349,1.86252 -0.22345,0.4321 -0.49808,0.82617 -0.61028,0.8757 -0.40714,0.17971 -2.4578,2.84643 -2.7208,3.53819 -0.47004,1.2363 -0.27939,22.77027 0.25409,28.69873 0.13749,1.52797 0.21969,3.31391 0.18266,3.96875 -0.037,0.65485 0.0391,1.48828 0.16926,1.85209 0.13012,0.3638 0.23823,1.04874 0.24024,1.52209 0.006,1.48941 0.42142,1.21037 1.56282,-1.05065 1.37938,-2.73245 2.63502,-5.14 4.45462,-8.54124 2.71004,-5.06569 3.27445,-6.0927 3.99862,-7.27604 0.97473,-1.59274 2.67459,-4.71176 3.89126,-7.13993 0.54582,-1.08931 1.11145,-2.12812 1.25697,-2.30848 0.14553,-0.18035 0.50271,-0.63812 0.79375,-1.01725 0.29105,-0.37913 0.678,-0.84986 0.8599,-1.04606 0.1819,-0.1962 0.33073,-0.443 0.33073,-0.54844 0,-0.43323 1.56725,-3.46865 1.95865,-3.79348 0.23243,-0.19291 0.42288,-0.48498 0.42323,-0.64907 7.9e-4,-0.31546 1.80048,-3.15486 2.49203,-3.93144 0.22437,-0.25197 0.44238,-0.90681 0.48446,-1.45521 0.049,-0.63803 0.20893,-0.9971 0.4442,-0.9971 0.36653,0 1.2684,-1.33397 2.02018,-2.98807 0.21783,-0.47927 0.55918,-0.93401 0.75856,-1.01052 0.19938,-0.0765 0.43914,-0.54757 0.5328,-1.04682 0.0937,-0.49924 0.27593,-0.90771 0.40505,-0.90771 0.12912,0 0.31227,-0.2442 0.407,-0.54267 0.0947,-0.29846 0.53502,-0.91379 0.97842,-1.36738 0.4434,-0.45359 1.02443,-1.31812 1.2912,-1.92117 0.26676,-0.603057 0.71943,-1.308607 1.00594,-1.567897 0.28651,-0.25929 0.46894,-0.60907 0.4054,-0.7773 -0.0635,-0.16823 0.24186,-0.72259 0.67868,-1.23191 0.43681,-0.50933 0.79449,-1.04841 0.79483,-1.19797 2.6e-4,-0.14956 0.20898,-0.46237 0.46364,-0.69514 0.25466,-0.23276 0.82021,-1.04275 1.25677,-1.79998 0.43656,-0.75722 1.06923,-1.80033 1.40592,-2.31802 0.3367,-0.51768 0.96807,-1.60818 1.40305,-2.42332 0.43498,-0.81514 0.96318,-1.57849 1.17377,-1.69634 0.21059,-0.11785 0.38289,-0.37961 0.38289,-0.58167 0,-0.20207 0.35718,-0.75847 0.79375,-1.23645 0.43656,-0.47797 0.79375,-1.02484 0.79375,-1.21526 0,-0.19041 0.17859,-0.41474 0.39687,-0.4985 0.21828,-0.0838 0.40478,-0.28839 0.41444,-0.45472 0.01,-0.16633 0.42631,-0.8382 0.92588,-1.49305 0.49958,-0.65484 1.35453,-1.87523 1.89992,-2.71198 0.54537,-0.83674 1.18123,-1.52135 1.41302,-1.52135 0.25887,0 0.55972,-0.41906 0.77998,-1.08645 0.19721,-0.59755 0.51392,-1.14607 0.70381,-1.21893 0.18988,-0.0729 0.34524,-0.29234 0.34524,-0.48771 0,-0.5125 1.92294,-3.02712 2.31511,-3.02746 0.1819,-1.6e-4 0.33073,-0.22867 0.33073,-0.50781 0,-0.78859 0.28521,-1.34456 0.68976,-1.34456 0.20271,0 0.36857,-0.11814 0.36857,-0.26254 0,-0.1444 0.35719,-0.5808 0.79375,-0.96978 0.43656,-0.38898 0.79375,-0.88302 0.79375,-1.09787 0,-0.21486 0.35719,-0.73199 0.79375,-1.14919 0.43656,-0.41721 0.79375,-0.80831 0.79375,-0.86912 0,-0.39421 2.82276,-4.18751 3.81857,-5.131487 0.66468,-0.630089 1.20851,-1.318712 1.20851,-1.530273 0,-0.211561 0.32742,-0.735806 0.72761,-1.164987 1.13745,-1.21988 1.65364,-1.836621 1.65364,-1.975742 0,-0.232806 3.51842,-4.733491 5.17427,-6.6188 0.89466,-1.018646 2.00103,-2.375387 2.45861,-3.014983 0.74367,-1.039519 2.14055,-2.674961 5.10009,-5.9711 0.52746,-0.587447 1.24184,-1.409952 1.5875,-1.82779 0.89568,-1.082677 5.21119,-5.278088 5.72491,-5.565579 1.97534,-1.105453 3.81609,0.127304 2.86521,1.918838 -0.20501,0.386254 -0.50936,1.378675 -0.67634,2.205381 -0.28391,1.405589 -2.58922,5.402059 -3.55898,6.169816 -0.34494,0.273093 -4.05374,4.809704 -8.22422,10.059882 -3.76862,4.744273 -6.522,8.140824 -7.18049,8.857824 -0.81549,0.88794 -2.85526,3.46777 -3.15902,3.99542 -0.21808,0.37881 -1.05071,1.37593 -3.7135,4.4471 -0.45311,0.5226 -1.0137,1.30738 -1.24575,1.74394 -0.23206,0.43656 -1.078,1.50812 -1.87987,2.38125 -0.80188,0.87312 -1.46168,1.65941 -1.46623,1.7473 -0.005,0.0879 -0.27616,0.46045 -0.60358,0.82791 -0.8287,0.93002 -2.08289,2.59552 -3.93842,5.23 -0.8712,1.23693 -1.83561,2.51685 -2.14313,2.84427 -0.30752,0.32742 -0.47885,0.59531 -0.38072,0.59531 0.0981,0 -0.003,0.20836 -0.22516,0.46302 -1.15386,1.32384 -3.03667,3.77367 -3.04126,3.95716 -0.003,0.11552 -0.59821,0.96819 -1.32292,1.89482 -0.72472,0.92663 -1.31766,1.79778 -1.31766,1.93588 0,0.2828 -1.1407,1.86092 -2.06845,2.86162 -0.33727,0.3638 -0.83552,1.08797 -1.1072,1.60926 -0.27169,0.52128 -0.79735,1.23566 -1.16814,1.58749 -0.37078,0.351837 -0.67621,0.741497 -0.67872,0.865917 -0.003,0.12442 -0.38247,0.77926 -0.84434,1.45521 -0.46187,0.67595 -1.5632,2.28658 -2.4474,3.5792 -0.88419,1.29261 -2.52595,3.73339 -3.64835,5.42395 -2.37064,3.5707 -2.56612,3.85717 -3.1848,4.66747 -0.25466,0.33353 -0.46302,0.68489 -0.46302,0.78078 0,0.0959 -0.32742,0.60155 -0.7276,1.12367 -0.40019,0.52212 -0.96573,1.33359 -1.25678,1.80326 -0.91133,1.47068 -2.62569,3.93669 -3.10885,4.47191 -0.25466,0.2821 -0.46302,0.67324 -0.46302,0.8692 0,0.38199 -0.7067,1.6225 -1.17211,2.05747 -0.78143,0.73033 -3.16093,4.67743 -6.22063,10.31875 -0.63142,1.16417 -1.25338,2.2515 -1.38215,2.4163 -0.86059,1.1014 -4.78013,9.79494 -6.24687,13.85558 -0.55847,1.54611 -0.61424,1.70176 -2.22757,6.2177 -0.75414,2.11093 -0.99247,3.12846 -0.86763,3.70417 0.0947,0.43656 0.21968,2.46062 0.2778,4.49792 0.0581,2.03729 0.17035,4.77573 0.2494,6.08541 0.17286,2.86376 0.30569,5.80649 0.35529,7.87136 0.0437,1.8205 0.33267,1.9159 2.49274,0.82299 2.30318,-1.16531 4.238,-2.59318 9.74685,-7.19307 0.92817,-0.77502 2.21727,-1.84659 2.86466,-2.38125 2.22884,-1.84074 3.68843,-3.31899 3.53008,-3.5752 -0.0873,-0.14124 -0.0313,-0.17807 0.12436,-0.0819 0.34771,0.2149 1.41072,-0.63049 4.16432,-3.3118 1.16417,-1.1336 2.51277,-2.35112 2.9969,-2.70561 0.48412,-0.35448 2.10085,-1.81569 3.59273,-3.24712 10.74473,-10.30943 17.35516,-14.13911 17.35516,-10.05454 0,0.19715 0.23107,0.56757 0.51348,0.82315 1.32216,1.19653 0.93179,5.54361 -1.02883,11.45694 -0.73571,2.21893 -1.38035,4.50842 -1.43253,5.08775 -0.0522,0.57932 -0.22426,1.20922 -0.3824,1.39976 -0.15813,0.19053 -0.3133,0.87761 -0.34481,1.52684 -0.0315,0.64922 -0.16539,1.32191 -0.2975,1.49487 -0.32142,0.42078 -0.30785,3.2578 0.0171,3.58277 0.76679,0.7668 2.90258,-0.57682 4.93816,-3.10656 1.83355,-2.27867 2.0883,-2.47945 3.23154,-2.54691 1.14636,-0.0676 1.66493,0.15003 1.66493,0.69886 0,0.33506 0.82789,1.32103 3.86673,4.60505 1.34326,1.45164 2.81959,0.97511 6.84889,-2.21066 5.3838,-4.25669 12.21439,-5.58679 14.15781,-2.75691 1.8337,2.67013 2.14901,2.75062 5.47267,1.39709 2.63066,-1.07132 5.01425,-1.42472 6.11298,-0.90634 1.87752,0.88583 2.9521,1.52443 4.34018,2.57929 3.83089,2.91127 6.7787,2.86818 15.82157,-0.23124 5.29756,-1.81573 10.4195,-1.06747 14.63976,2.1387 2.62677,1.99558 5.96284,3.98302 6.68582,3.98302 0.33199,0 0.66462,0.0987 0.73919,0.21937 0.74651,1.20789 15.06727,0.53702 16.03525,-0.75119 0.30445,-0.40517 1.32921,-0.43964 1.86721,-0.0628 0.72957,0.51101 0.36709,0.7603 -1.8343,1.26149 -0.81846,0.18635 -1.96551,0.5188 -2.549,0.7388 -0.58348,0.21999 -1.9527,0.48172 -3.0427,0.58162 -1.09001,0.0999 -2.18237,0.28893 -2.42748,0.42009 -0.24508,0.13115 -1.9835,0.23846 -3.86312,0.23846 -3.12577,0 -4.25636,-0.15774 -5.74542,-0.80159 -0.29104,-0.12585 -1.4519,-0.60339 -2.57968,-1.06122 -1.12779,-0.45782 -2.05134,-0.91059 -2.05233,-1.00615 -0.001,-0.0956 -0.44748,-0.47136 -0.99219,-0.8351 -0.54471,-0.36374 -1.10944,-0.78726 -1.25496,-0.94114 -0.83722,-0.88533 -3.37265,-2.49714 -3.93285,-2.50018 -0.16527,-7.9e-4 -0.62251,-0.16963 -1.01609,-0.37496 -1.64346,-0.85739 -6.71652,-0.15099 -10.13231,1.41087 -0.75461,0.34504 -3.97619,1.26005 -5.68855,1.6157 -1.1011,0.22869 -1.97026,0.22594 -3.57187,-0.0113 -1.16417,-0.17245 -2.68722,-0.37227 -3.38456,-0.44405 -0.95415,-0.0982 -1.36921,-0.28514 -1.67732,-0.75537 -0.22518,-0.34367 -0.65005,-0.70123 -0.94416,-0.79458 -0.29411,-0.0934 -0.96807,-0.55264 -1.49769,-1.02066 -2.78099,-2.45753 -3.42148,-2.51173 -7.38168,-0.62463 -3.52538,1.6799 -5.93351,0.96743 -8.62483,-2.55173 -0.63805,-0.83431 -0.8652,-0.96213 -1.45521,-0.81885 -1.46236,0.35513 -5.29494,2.39921 -7.71059,4.11239 -7.17136,5.0859 -9.72755,5.16137 -13.24727,0.39111 -0.95425,-1.2933 -1.80416,-1.84142 -2.01018,-1.29641 -0.22715,0.60089 -1.07802,1.45748 -2.86651,2.88577 -5.93889,4.74277 -9.75525,0.30135 -7.2767,-8.46853 0.16451,-0.58208 0.45461,-1.71317 0.64467,-2.51354 0.19005,-0.80036 0.58583,-2.11005 0.8795,-2.91041 2.13956,-5.83121 2.76782,-11.37709 1.28884,-11.37709 -0.70131,0 -7.13921,4.82628 -8.52261,6.38912 -0.50111,0.56611 -1.64416,1.63304 -8.16607,7.62224 -1.15631,1.06186 -2.7897,2.50265 -3.62978,3.20177 -1.51888,1.26402 -3.10336,2.68279 -4.42425,3.96154 -0.38033,0.3682 -1.40589,1.24346 -2.27902,1.94501 -1.99453,1.60261 -3.08584,2.51546 -7.17672,6.0032 -1.80428,1.53826 -3.78513,3.07396 -4.4019,3.41267 -2.42517,1.33183 -3.58162,1.81987 -4.71513,1.98985 -1.17779,0.17662 -1.18157,0.18064 -1.20002,1.28058 -0.0919,5.47633 -0.41764,15.36383 -0.53755,16.31694 -0.0824,0.65484 -0.18545,1.78594 -0.22903,2.51354 -0.4575,7.63812 -0.64785,10.2216 -0.76734,10.41494 -0.0776,0.12551 -0.20484,0.98864 -0.28284,1.91808 -0.18655,2.22299 -1.16335,13.14306 -1.47651,16.50656 -0.13549,1.45521 -0.37603,3.28036 -0.53454,4.05588 -0.1585,0.77552 -0.23214,1.4661 -0.16363,1.5346 0.0685,0.0685 0.0211,0.56508 -0.10525,1.1035 -0.22992,0.97943 -0.84458,5.46317 -1.29487,9.4456 -0.13164,1.16417 -0.35576,2.47386 -0.49805,2.91042 -0.25416,0.77977 -0.58183,2.4113 -1.22218,6.08542 -0.17753,1.01864 -0.47436,2.44741 -0.65962,3.17501 -0.18525,0.72761 -0.4894,1.91823 -0.67588,2.64583 -0.18648,0.72761 -0.46141,1.8587 -0.61096,2.51355 -0.89628,3.92467 -2.14664,7.99967 -3.40971,11.1125 -0.44699,1.10159 -1.12681,3.17759 -1.12681,3.44098 0,0.13613 -0.30444,0.93565 -0.67654,1.77671 -0.3721,0.84105 -0.77193,1.76731 -0.8885,2.05835 -0.11658,0.29104 -0.47989,1.18401 -0.80735,1.98437 -0.32745,0.80037 -0.65588,1.7231 -0.72984,2.05052 -0.074,0.32743 -0.23964,0.59532 -0.3682,0.59532 -0.12856,0 -0.23374,0.17507 -0.23374,0.38904 0,0.60857 -1.1918,3.06782 -3.7399,7.71721 -1.29003,2.35386 -2.34552,4.37187 -2.34552,4.48445 0,0.28847 -2.15342,3.57547 -2.71197,4.13959 -0.25467,0.2572 -0.46303,0.6005 -0.46303,0.7629 0,0.44336 -1.80506,2.81421 -3.02578,3.9742 -2.54849,2.4217 -5.86886,3.06115 -8.1075,1.56136 z m 4.5187,-1.99565 c 1.5229,-0.77904 5.02708,-4.66979 5.02708,-5.5817 0,-0.19347 0.35719,-0.75856 0.79375,-1.25577 0.43657,-0.49723 0.79375,-1.05754 0.79375,-1.24515 0,-0.18762 0.17517,-0.53467 0.38927,-0.77124 0.5967,-0.65934 2.49167,-4.31797 5.62299,-10.85633 1.30778,-2.73068 1.47169,-3.11589 1.90674,-4.48074 0.15933,-0.49988 0.45882,-1.09572 0.66552,-1.32414 0.20671,-0.22841 0.41898,-0.71239 0.47171,-1.0755 0.0527,-0.36314 0.22365,-0.89837 0.3798,-1.18941 0.15615,-0.29104 0.36976,-1.00542 0.4747,-1.5875 0.10494,-0.58208 0.29245,-1.18147 0.4167,-1.33194 0.34854,-0.42217 2.41557,-6.48888 2.56614,-7.5316 0.0735,-0.50932 0.22217,-1.0451 0.33027,-1.19063 0.27331,-0.36793 1.21822,-3.64667 1.60126,-5.55625 0.17514,-0.87312 0.67172,-2.95671 1.10352,-4.6302 0.4318,-1.67349 0.89024,-3.69756 1.01875,-4.49792 0.12852,-0.80036 0.30035,-1.87193 0.38186,-2.38125 0.0815,-0.50932 0.22779,-1.2237 0.32506,-1.5875 0.0973,-0.3638 0.19924,-0.78052 0.2266,-0.92604 0.0274,-0.14552 0.0821,-0.38365 0.1216,-0.52917 0.0395,-0.14552 0.10909,-0.56224 0.15461,-0.92604 0.0455,-0.3638 0.20004,-1.43536 0.34339,-2.38125 0.14334,-0.94589 0.46034,-3.32714 0.70444,-5.29167 0.2441,-1.96453 0.48209,-3.86953 0.52887,-4.23333 0.0468,-0.3638 0.15734,-1.61396 0.2457,-2.77812 0.0884,-1.16417 0.22904,-2.29527 0.31261,-2.51355 0.0836,-0.21828 0.18827,-0.93265 0.23266,-1.5875 0.0778,-1.14805 0.47572,-4.94392 0.77655,-7.40833 0.0799,-0.65484 0.25338,-2.50031 0.38543,-4.10104 0.13205,-1.60073 0.37618,-4.27964 0.54252,-5.95313 0.37952,-3.81844 1.44047,-17.92244 1.52257,-20.24062 0.35002,-9.88348 0.37472,-9.58964 -0.89504,-10.65057 -1.59382,-1.33169 -2.18334,-2.41592 -2.457,-4.51887 -0.2744,-2.10848 -0.33614,-8.4905 -0.086,-8.89015 0.0971,-0.15514 0.1985,-0.40114 0.22535,-0.54666 0.0269,-0.14552 0.17611,-0.80036 0.3317,-1.45521 0.33652,-1.41634 0.37551,-2.11991 0.0933,-1.68425 -0.10691,0.16506 -0.42405,0.34366 -0.70474,0.39687 -0.28069,0.0532 -0.45929,0.16479 -0.39688,0.24795 0.0624,0.0831 -0.10516,0.36983 -0.3724,0.63707 -0.30444,0.30444 -0.43995,0.72617 -0.36287,1.12936 0.13246,0.69291 -0.37496,1.9265 -1.00882,2.45256 -0.21526,0.17865 -0.39139,0.53379 -0.39139,0.78919 0,0.25541 -0.16565,0.60185 -0.36811,0.76988 -0.20246,0.16803 -0.44675,0.82992 -0.54287,1.47087 -0.0961,0.64096 -0.46625,1.59491 -0.82251,2.1199 -0.35627,0.52498 -0.64776,1.07624 -0.64776,1.225 0,0.14877 -0.31426,0.68251 -0.69835,1.18608 -0.3841,0.50357 -0.62858,0.98537 -0.5433,1.07065 0.1932,0.19319 -0.56759,2.19743 -1.04835,2.76179 -0.19571,0.22974 -0.35583,0.59675 -0.35583,0.81558 0,0.60558 -2.23955,5.89435 -2.87224,6.78288 -0.30644,0.43036 -0.72726,1.43551 -0.93516,2.23368 -0.20789,0.79816 -0.6218,1.92912 -0.91979,2.51323 -0.29799,0.58411 -0.47033,1.13349 -0.38298,1.22085 0.0873,0.0873 -0.0368,0.23389 -0.27592,0.32565 -0.23911,0.0917 -0.43553,0.36245 -0.43649,0.60154 -10e-4,0.23909 -0.2383,0.7919 -0.52742,1.22846 -0.28912,0.43657 -0.52647,1.00373 -0.52742,1.26036 -10e-4,0.25664 -0.11021,0.67336 -0.24278,0.92605 -0.22702,0.43272 -0.94604,2.02096 -2.0047,4.42818 -0.55227,1.25577 -0.91554,2.3751 -1.09498,3.37398 -0.072,0.40048 -0.30149,1.05532 -0.51009,1.4552 -0.2086,0.39989 -0.38,0.9428 -0.3809,1.20647 -7.9e-4,0.26367 -0.2947,1.0989 -0.65289,1.85605 -0.35819,0.75715 -0.83846,1.90725 -1.06727,2.55577 -0.22881,0.64852 -0.63541,1.42064 -0.90356,1.71583 -0.26814,0.29518 -0.56948,1.01295 -0.66964,1.59503 -0.18799,1.09251 -1.4784,4.72005 -2.14885,6.04071 -0.20914,0.41198 -0.38025,0.91799 -0.38025,1.12448 0,0.20649 -0.11907,0.37543 -0.26459,0.37543 -0.14552,0 -0.26458,0.36194 -0.26458,0.80429 0,0.44236 -0.23813,1.27106 -0.52917,1.84155 -0.29104,0.57049 -0.52916,1.20397 -0.52916,1.40774 0,0.20378 -0.31266,0.83123 -0.69481,1.39434 -0.38214,0.56312 -0.75539,1.4756 -0.82945,2.02775 -0.0741,0.55215 -0.23765,1.06756 -0.36353,1.14536 -0.12588,0.0778 -0.22888,0.37553 -0.22888,0.66162 0,0.28608 -0.24981,1.20179 -0.55514,2.0349 -0.30533,0.83311 -0.7739,2.31089 -1.04127,3.28396 -0.26738,0.97306 -0.65925,2.04462 -0.87084,2.38125 -0.21159,0.33662 -0.53931,1.26688 -0.72828,2.06724 -0.18897,0.80037 -0.42178,1.57427 -0.51735,1.71979 -0.1809,0.27546 -0.46864,1.36646 -1.18628,4.49792 -0.23345,1.01865 -0.65538,2.53717 -0.93764,3.37449 -0.28226,0.83733 -0.5132,1.88504 -0.5132,2.32825 0,0.4432 -0.18226,1.15829 -0.40503,1.58907 -0.22277,0.43079 -0.41828,1.22855 -0.43448,1.7728 -0.0162,0.54426 -0.17869,1.40628 -0.36112,1.9156 -0.80885,2.2583 -1.61151,9.64621 -1.85665,17.08904 -0.0811,2.46097 -0.27676,4.80809 -0.43491,5.21581 -0.2076,0.53525 -0.20653,1.0133 0.004,1.71979 0.16026,0.53816 0.36756,2.28817 0.46067,3.8889 0.0931,1.60073 0.27436,3.33137 0.40278,3.84588 0.12842,0.51451 0.30231,1.93439 0.38643,3.15534 0.0841,1.22092 0.24932,2.40731 0.36712,2.63641 0.11781,0.22911 0.29721,0.87593 0.39868,1.43741 0.10146,0.56147 0.40758,1.51397 0.68025,2.11666 0.27268,0.6027 0.65111,1.48275 0.84097,1.9557 0.18986,0.47294 0.42981,0.85989 0.53321,0.85989 0.1034,0 0.26718,0.42201 0.36394,0.93779 0.31536,1.68103 4.27975,4.89622 5.38312,4.36581 0.22993,-0.11052 0.83477,-0.41412 1.34409,-0.67466 z m 30.57572,-133.94404 c -0.1089,-2.43747 -0.18104,-5.10573 -0.1603,-5.92947 0.0489,-1.94266 -0.42485,-2.25154 -0.65046,-0.4241 -0.5419,4.38934 -0.0498,10.78534 0.82977,10.78534 0.0984,0 0.0899,-1.9943 -0.019,-4.43177 z m -10.46739,0.33073 c 0,-0.0728 -0.0595,-0.13229 -0.13229,-0.13229 -0.0728,0 -0.13229,0.0595 -0.13229,0.13229 0,0.0728 0.0595,0.13229 0.13229,0.13229 0.0728,0 0.13229,-0.0595 0.13229,-0.13229 z m 8.20209,-12.30313 c 0,-0.43656 -0.11906,-0.79375 -0.26458,-0.79375 -0.14553,0 -0.26459,0.35719 -0.26459,0.79375 0,0.43657 0.11906,0.79375 0.26459,0.79375 0.14552,0 0.26458,-0.35718 0.26458,-0.79375 z m 0.52917,-1.4552 c 0,-0.21828 -0.11533,-0.39688 -0.25629,-0.39688 -0.14095,0 -0.18774,0.1786 -0.10398,0.39688 0.0838,0.21828 0.19909,0.39687 0.25628,0.39687 0.0572,0 0.10399,-0.17859 0.10399,-0.39687 z m 23.28333,-47.36042 c 0,-0.0728 -0.0595,-0.13229 -0.13229,-0.13229 -0.0728,0 -0.13229,0.0595 -0.13229,0.13229 0,0.0728 0.0595,0.13229 0.13229,0.13229 0.0728,0 0.13229,-0.0595 0.13229,-0.13229 z m -17.92687,-11.39142 c 1.36656,-1.75413 2.56595,-3.36148 2.66531,-3.57187 0.0994,-0.2104 0.71724,-1.09692 1.37309,-1.97004 1.81376,-2.414667 3.83164,-5.370737 4.01916,-5.887807 0.0922,-0.2542 0.52582,-0.99797 0.96364,-1.65282 0.43781,-0.65484 1.00141,-1.49707 1.25243,-1.87162 0.41286,-0.61601 0.98107,-1.66652 4.21798,-7.79825 0.54139,-1.02557 1.07629,-2.15435 1.18867,-2.50842 0.11238,-0.35407 0.42372,-0.94372 0.69186,-1.31034 0.39824,-0.54448 1.99722,-4.69705 2.19238,-5.69366 0.0844,-0.43094 0.96887,-3.13102 1.2134,-3.70416 0.12416,-0.29105 0.28685,-0.82683 0.36153,-1.19063 0.66278,-3.22908 1.51708,-7.08535 1.6412,-7.40833 0.0839,-0.21828 0.25407,-1.230314 0.37821,-2.248959 0.12413,-1.018646 0.41899,-3.042709 0.65524,-4.497917 1.50837,-9.29092 1.49714,-13.862698 -0.0397,-16.166245 -0.55608,-0.83349 -1.13012,-1.738066 -1.27564,-2.010169 -0.80155,-1.498764 -3.63542,-1.137044 -5.36068,0.684247 -0.88914,0.938628 -1.34683,1.592971 -2.70419,3.866126 -2.76822,4.635899 -5.72345,12.562056 -7.94121,21.298957 -0.29551,1.16417 -0.57401,2.23573 -0.61889,2.38125 -0.10772,0.34931 -0.66691,3.06794 -1.00679,4.89479 -0.36587,1.96652 -1.02187,4.87633 -1.4573,6.46417 -0.1968,0.71764 -0.35782,1.82058 -0.35782,2.45099 0,0.6304 -0.11003,1.35293 -0.2445,1.60562 -0.21222,0.39877 -1.34083,5.87407 -1.75351,8.50695 -0.0779,0.49708 -0.18441,0.97333 -0.23666,1.05834 -0.36135,0.58789 -1.57384,9.10382 -1.96207,13.780597 -0.10268,1.23692 -0.27343,2.38876 -0.37945,2.55963 -0.28876,0.46543 -0.45818,3.30872 -0.19141,3.21237 0.12709,-0.0459 1.34917,-1.51866 2.71573,-3.2728 z m 40.55215,-21.251657 c 0.14365,-0.27291 0.4726,-0.86822 0.73099,-1.32292 0.4167,-0.73323 0.42241,-0.82671 0.0505,-0.82671 -0.2306,0 -0.3534,0.10659 -0.27289,0.23686 0.0805,0.13028 -0.0315,0.30513 -0.24897,0.38857 -0.21745,0.0834 -0.39536,0.31947 -0.39536,0.5245 0,0.20503 -0.17859,0.521 -0.39687,0.70216 -0.21828,0.18116 -0.39688,0.43386 -0.39688,0.56156 0,0.42718 0.66508,0.23826 0.92945,-0.26402 z m 1.36361,-2.85518 c -0.097,-0.097 -0.17639,-0.0176 -0.17639,0.17639 0,0.19402 0.0794,0.2734 0.17639,0.17639 0.097,-0.097 0.097,-0.25577 0,-0.35278 z m 3.66007,-4.8507 c 0.0899,-0.14552 0.10399,-0.26458 0.0312,-0.26458 -0.0728,0 -0.20588,0.11906 -0.29581,0.26458 -0.0899,0.14553 -0.10399,0.26459 -0.0312,0.26459 0.0728,0 0.20587,-0.11906 0.29581,-0.26459 z m 2.60594,-2.97496 c -0.25395,-0.41089 -0.82993,-0.17951 -0.98397,0.39528 -0.30184,1.12631 -0.16533,1.28461 0.47041,0.54551 0.35045,-0.40742 0.58155,-0.83078 0.51356,-0.94079 z m -0.35698,0.19684 c 0,-0.0728 0.0595,-0.13229 0.13229,-0.13229 0.0728,0 0.13229,0.0595 0.13229,0.13229 0,0.0728 -0.0595,0.13229 -0.13229,0.13229 -0.0728,0 -0.13229,-0.0595 -0.13229,-0.13229 z m 0.98667,-0.82131 c -0.0879,-0.0879 -0.31612,-0.0973 -0.50712,-0.0209 -0.21106,0.0845 -0.14837,0.14715 0.15986,0.15985 0.27891,0.0115 0.43518,-0.0511 0.34726,-0.13897 z m 2.93047,-3.407 c 0.75599,-0.7976 1.37452,-1.57151 1.37452,-1.71979 0,-0.14829 0.11907,-0.26961 0.26459,-0.26961 0.14552,0 0.2676,-0.14883 0.2713,-0.33073 0.004,-0.1819 0.59901,-1.04295 1.32291,-1.91345 0.72391,-0.8705 1.3162,-1.67712 1.3162,-1.79249 0,-0.11537 0.29766,-0.32293 0.66146,-0.46124 0.3638,-0.13832 0.66146,-0.42893 0.66146,-0.64579 0,-0.21687 0.35719,-0.7597 0.79375,-1.2063 0.43656,-0.4466 0.79375,-0.91697 0.79375,-1.04527 0,-0.1283 0.48845,-0.749272 1.08545,-1.379938 0.597,-0.630666 1.54362,-1.758694 2.1036,-2.506731 0.55997,-0.748038 1.44017,-1.819601 1.95599,-2.38125 0.51582,-0.56165 0.93842,-1.111512 0.93911,-1.221912 0.001,-0.202581 0.73844,-1.088988 2.31637,-2.785325 0.47294,-0.508434 0.8599,-1.034425 0.8599,-1.168871 0,-0.134448 0.29658,-0.564276 0.65907,-0.955177 0.98694,-1.064297 4.89487,-6.03994 6.19824,-7.891706 1.41357,-2.00833 1.32111,-2.769367 -0.1226,-1.009118 -0.57539,0.701558 -2.0582,2.311836 -3.29513,3.578399 -2.50463,2.564641 -3.53453,3.794155 -4.6126,5.506652 -0.40149,0.637749 -1.54586,1.991764 -2.54305,3.008923 -0.99718,1.017156 -2.14414,2.340832 -2.5488,2.941497 -0.40465,0.600668 -1.12512,1.560037 -1.60105,2.131934 -0.47594,0.571896 -0.86533,1.190222 -0.86533,1.374057 0,0.183838 -0.21182,0.489829 -0.4707,0.679982 -1.36444,1.002205 -5.08555,6.181224 -5.08555,7.078034 0,0.28882 -0.26789,0.66211 -0.59532,0.82955 -0.64294,0.32879 -2.57968,2.30003 -2.57968,2.62565 0,0.10931 -0.16565,0.33622 -0.3681,0.50423 -0.37538,0.31154 -0.73517,1.87597 -0.43144,1.87597 0.0919,0 0.78569,-0.65258 1.54168,-1.45018 z m -51.27756,111.913717 c 0,-0.0728 0.0595,-0.13229 0.13229,-0.13229 0.0728,0 0.13229,0.0595 0.13229,0.13229 0,0.0728 -0.0595,0.13229 -0.13229,0.13229 -0.0728,0 -0.13229,-0.0595 -0.13229,-0.13229 z m -14.55209,-6.87916 c 0,-0.0728 0.0595,-0.1323 0.1323,-0.1323 0.0728,0 0.13229,0.0595 0.13229,0.1323 0,0.0728 -0.0595,0.13229 -0.13229,0.13229 -0.0728,0 -0.1323,-0.0595 -0.1323,-0.13229 z m 98.42501,-1.05834 c 0,-0.0728 0.0595,-0.13229 0.13229,-0.13229 0.0728,0 0.13229,0.0595 0.13229,0.13229 0,0.0728 -0.0595,0.13229 -0.13229,0.13229 -0.0728,0 -0.13229,-0.0595 -0.13229,-0.13229 z m -8.46667,-140.229156 c 0,-0.07276 0.0595,-0.132292 0.13229,-0.132292 0.0728,0 0.13229,0.05953 0.13229,0.132292 0,0.07276 -0.0595,0.132292 -0.13229,0.132292 -0.0728,0 -0.13229,-0.05953 -0.13229,-0.132292 z"
       id="path541" /></g></svg>
